<mxfile host="app.diagrams.net" modified="2021-10-10T09:24:56.994Z" agent="5.0 (Windows NT 10.0; Win64; x64) AppleWebKit/537.36 (KHTML, like Gecko) Chrome/94.0.4606.71 Safari/537.36 Edg/94.0.992.38" etag="O8fPPfXbXAssBKOOsTqP" version="15.1.4" type="github">
  <diagram id="ZQfEB4-BNZ9fsSwL6noP" name="Page-1">
    <mxGraphModel dx="1662" dy="762" grid="1" gridSize="10" guides="1" tooltips="1" connect="1" arrows="1" fold="1" page="1" pageScale="1" pageWidth="850" pageHeight="1100" math="0" shadow="0">
      <root>
        <mxCell id="0" />
        <mxCell id="1" parent="0" />
        <mxCell id="x5rEJ1YLPr4AWN_jkcEg-9" style="edgeStyle=orthogonalEdgeStyle;rounded=0;orthogonalLoop=1;jettySize=auto;html=1;entryX=0.5;entryY=0;entryDx=0;entryDy=0;" edge="1" parent="1" source="x5rEJ1YLPr4AWN_jkcEg-1" target="x5rEJ1YLPr4AWN_jkcEg-2">
          <mxGeometry relative="1" as="geometry" />
        </mxCell>
        <mxCell id="x5rEJ1YLPr4AWN_jkcEg-1" value="Build Bhav Url" style="rounded=0;whiteSpace=wrap;html=1;" vertex="1" parent="1">
          <mxGeometry x="240" y="120" width="120" height="60" as="geometry" />
        </mxCell>
        <mxCell id="x5rEJ1YLPr4AWN_jkcEg-10" style="edgeStyle=orthogonalEdgeStyle;rounded=0;orthogonalLoop=1;jettySize=auto;html=1;" edge="1" parent="1" source="x5rEJ1YLPr4AWN_jkcEg-2" target="x5rEJ1YLPr4AWN_jkcEg-3">
          <mxGeometry relative="1" as="geometry" />
        </mxCell>
        <mxCell id="x5rEJ1YLPr4AWN_jkcEg-2" value="Get Bhav zip" style="rounded=0;whiteSpace=wrap;html=1;" vertex="1" parent="1">
          <mxGeometry x="240" y="240" width="120" height="60" as="geometry" />
        </mxCell>
        <mxCell id="x5rEJ1YLPr4AWN_jkcEg-11" style="edgeStyle=orthogonalEdgeStyle;rounded=0;orthogonalLoop=1;jettySize=auto;html=1;entryX=0.5;entryY=0;entryDx=0;entryDy=0;" edge="1" parent="1" source="x5rEJ1YLPr4AWN_jkcEg-3" target="x5rEJ1YLPr4AWN_jkcEg-4">
          <mxGeometry relative="1" as="geometry" />
        </mxCell>
        <mxCell id="x5rEJ1YLPr4AWN_jkcEg-3" value="Unzip Bhav Zip" style="rounded=0;whiteSpace=wrap;html=1;" vertex="1" parent="1">
          <mxGeometry x="240" y="360" width="120" height="60" as="geometry" />
        </mxCell>
        <mxCell id="x5rEJ1YLPr4AWN_jkcEg-12" style="edgeStyle=orthogonalEdgeStyle;rounded=0;orthogonalLoop=1;jettySize=auto;html=1;entryX=0.5;entryY=0;entryDx=0;entryDy=0;" edge="1" parent="1" source="x5rEJ1YLPr4AWN_jkcEg-4" target="x5rEJ1YLPr4AWN_jkcEg-5">
          <mxGeometry relative="1" as="geometry" />
        </mxCell>
        <mxCell id="x5rEJ1YLPr4AWN_jkcEg-4" value="Convert csv to json" style="rounded=0;whiteSpace=wrap;html=1;" vertex="1" parent="1">
          <mxGeometry x="240" y="480" width="120" height="60" as="geometry" />
        </mxCell>
        <mxCell id="x5rEJ1YLPr4AWN_jkcEg-5" value="Standarize the json" style="rounded=0;whiteSpace=wrap;html=1;" vertex="1" parent="1">
          <mxGeometry x="240" y="600" width="120" height="60" as="geometry" />
        </mxCell>
        <mxCell id="x5rEJ1YLPr4AWN_jkcEg-8" style="edgeStyle=orthogonalEdgeStyle;rounded=0;orthogonalLoop=1;jettySize=auto;html=1;entryX=0.5;entryY=0;entryDx=0;entryDy=0;" edge="1" parent="1" source="x5rEJ1YLPr4AWN_jkcEg-7" target="x5rEJ1YLPr4AWN_jkcEg-1">
          <mxGeometry relative="1" as="geometry" />
        </mxCell>
        <mxCell id="x5rEJ1YLPr4AWN_jkcEg-7" value="Start" style="ellipse;whiteSpace=wrap;html=1;aspect=fixed;" vertex="1" parent="1">
          <mxGeometry x="260" width="80" height="80" as="geometry" />
        </mxCell>
        <mxCell id="x5rEJ1YLPr4AWN_jkcEg-13" value="Stop" style="ellipse;whiteSpace=wrap;html=1;aspect=fixed;" vertex="1" parent="1">
          <mxGeometry x="260" y="720" width="80" height="80" as="geometry" />
        </mxCell>
      </root>
    </mxGraphModel>
  </diagram>
</mxfile>
